<?xml version="1.0" standalone="no"?>
<!DOCTYPE svg PUBLIC "-//W3C//DTD SVG 20010904//EN"
 "http://www.w3.org/TR/2001/REC-SVG-20010904/DTD/svg10.dtd">
<svg version="1.0" xmlns="http://www.w3.org/2000/svg"
 width="88.000000pt" height="100.000000pt" viewBox="0 0 88.000000 100.000000"
 preserveAspectRatio="xMidYMid meet">

<g transform="translate(0.000000,100.000000) scale(0.100000,-0.100000)"
fill="#000000" stroke="none">
<path d="M355 865 c-27 -13 -55 -25 -61 -25 -23 0 -74 -71 -89 -124 -37 -127
-47 -334 -20 -410 13 -37 12 -41 -11 -75 -13 -20 -24 -42 -24 -51 0 -8 22 -27
49 -43 49 -27 50 -27 242 -27 l194 0 52 30 c50 29 52 31 42 59 -6 16 -21 41
-34 55 -20 22 -22 30 -14 58 15 55 10 194 -11 299 -15 72 -18 105 -10 119 27
50 -4 109 -74 141 -62 28 -167 26 -231 -6z m46 -167 c27 -20 43 -23 121 -23
l90 0 -5 -32 c-4 -22 -1 -33 9 -37 24 -9 13 -58 -15 -73 -14 -6 -29 -20 -35
-31 -6 -11 -25 -31 -43 -46 -28 -23 -31 -31 -26 -64 3 -20 14 -44 24 -54 27
-24 24 -37 -16 -54 -53 -22 -109 -18 -142 10 l-28 24 22 18 c11 11 24 36 27
56 6 33 4 39 -28 63 -20 15 -38 36 -41 46 -4 11 -17 24 -31 29 -13 5 -26 20
-30 34 -5 20 2 33 36 68 23 24 49 53 57 66 8 12 17 22 20 22 2 0 18 -10 34
-22z"/>
<path d="M323 653 c-7 -2 -13 -9 -13 -14 0 -6 7 -6 19 0 10 6 21 7 25 4 3 -3
6 -1 6 5 0 12 -15 14 -37 5z"/>
<path d="M520 648 c0 -6 3 -8 6 -5 4 3 15 2 25 -4 11 -6 19 -6 19 0 0 9 -23
21 -41 21 -5 0 -9 -5 -9 -12z"/>
<path d="M337 601 c7 -26 29 -33 43 -16 16 19 4 35 -25 35 -18 0 -22 -4 -18
-19z"/>
<path d="M485 610 c-9 -15 13 -40 30 -34 7 3 15 14 18 25 4 15 0 19 -18 19
-13 0 -27 -5 -30 -10z"/>
<path d="M400 491 c0 -5 9 -13 20 -16 23 -7 60 2 60 16 0 5 -9 4 -20 -3 -16
-10 -24 -10 -40 0 -11 7 -20 8 -20 3z"/>
</g>
</svg>
