<?xml version="1.0" standalone="no"?>
<!DOCTYPE svg PUBLIC "-//W3C//DTD SVG 20010904//EN"
 "http://www.w3.org/TR/2001/REC-SVG-20010904/DTD/svg10.dtd">
<svg version="1.0" xmlns="http://www.w3.org/2000/svg"
 width="94.000000pt" height="94.000000pt" viewBox="0 0 94.000000 94.000000"
 preserveAspectRatio="xMidYMid meet">

<g transform="translate(0.000000,94.000000) scale(0.100000,-0.100000)"
fill="#000000" stroke="none">
<path d="M415 895 c-16 -8 -87 -35 -157 -61 -71 -26 -128 -50 -128 -54 0 -4
31 -21 70 -36 58 -24 70 -33 70 -52 0 -17 7 -24 30 -29 42 -8 45 -19 16 -53
-31 -38 -67 -131 -74 -192 -5 -51 15 -98 43 -98 8 0 15 -4 15 -10 0 -5 -4 -10
-10 -10 -23 0 -7 -22 25 -36 88 -36 192 -114 180 -134 -9 -14 -157 -12 -245 4
-80 15 -103 9 -84 -22 18 -27 84 -33 342 -30 230 3 244 4 258 23 25 34 7 69
-88 168 -43 44 -44 47 -23 47 8 0 22 12 31 26 32 49 10 179 -48 271 l-20 33
26 10 c16 6 26 17 26 30 0 15 13 26 46 40 25 11 47 20 49 20 2 0 6 -35 8 -77
l3 -78 2 82 c2 73 4 82 23 88 11 4 18 12 16 18 -5 16 -283 119 -332 123 -22 2
-53 -3 -70 -11z m11 -266 c33 -9 56 -8 91 0 42 11 48 10 67 -8 17 -17 21 -37
24 -113 4 -91 4 -94 -24 -122 -30 -30 -81 -56 -109 -56 -39 0 -116 44 -136 77
-18 29 -21 45 -17 108 5 72 26 125 49 125 5 0 30 -5 55 -11z m112 -362 c5 -26
-34 -57 -73 -57 -49 0 -94 48 -68 74 4 4 36 5 72 3 51 -2 67 -7 69 -20z"/>
<path d="M760 568 c-13 -28 -8 -58 10 -58 17 0 23 27 12 57 l-9 28 -13 -27z"/>
<path d="M701 524 c0 -11 3 -14 6 -6 3 7 2 16 -1 19 -3 4 -6 -2 -5 -13z"/>
</g>
</svg>
